<svg id="Layer_1" data-name="Layer 1" xmlns="http://www.w3.org/2000/svg" viewBox="0 0 316.5 86.4"><defs><style>.cls-1{fill:#fff;}</style></defs><title>Artboard 1_1</title><rect class="cls-1" x="-191.8" y="-309" width="700" height="700"/><path d="M233.8,27.1c-4.6,4.5-6.8,10.2-6.8,17A21.85,21.85,0,0,0,233.9,60a21.9,21.9,0,0,0,16,6.9,27.7,27.7,0,0,0,13.8-4.1V52.2c-5.1,3.6-9.7,5.3-13.7,5.3a13.23,13.23,0,0,1-9.9-4.2A14.26,14.26,0,0,1,236,43a12.59,12.59,0,0,1,4.3-9.5,14.48,14.48,0,0,1,10.1-4.1c4.2,0,8.6,1.5,13.3,4.5V23.5A29.1,29.1,0,0,0,251,20.3,23.6,23.6,0,0,0,233.8,27.1Z"/><path d="M292.7,20.3c-6.2,0-11.6,2.3-16.4,7s-7.1,10-7.1,16.1a22.38,22.38,0,0,0,7.2,16.5,23.5,23.5,0,0,0,17,7,22,22,0,0,0,16.1-7.1,22.49,22.49,0,0,0,7-16.4,22,22,0,0,0-7.1-16.2A23.46,23.46,0,0,0,292.7,20.3Zm10.4,33.1A13.86,13.86,0,0,1,293,57.7a14.27,14.27,0,0,1-10.3-4.2,13.11,13.11,0,0,1-4.4-9.7,13.42,13.42,0,0,1,4.4-10,14.5,14.5,0,0,1,10.4-4.2,14.21,14.21,0,0,1,10.2,4.2,13.06,13.06,0,0,1,4.3,9.8A14.42,14.42,0,0,1,303.1,53.4Z"/><rect x="2.6" y="21.6" width="9.3" height="64.8"/><path d="M7.2,0A6.94,6.94,0,0,0,2.1,2.1,6.94,6.94,0,0,0,0,7.2a6.94,6.94,0,0,0,2.1,5.1,7,7,0,0,0,5.1,2.2,6.67,6.67,0,0,0,5.1-2.2,6.94,6.94,0,0,0,2.1-5.1,6.94,6.94,0,0,0-2.1-5.1A6.94,6.94,0,0,0,7.2,0Z"/><path d="M50.4,46.4c0,3.6-.9,6.4-2.6,8.4a8.93,8.93,0,0,1-7.1,3.1c-6.7,0-10.1-3.8-10.1-11.5V21.5H21.3v26c0,5.7,1.8,10.4,5.3,14s8.1,5.3,13.8,5.3a19,19,0,0,0,13.8-5.3,18.39,18.39,0,0,0,5.4-13.6V21.5H50.4V46.4Z"/><path d="M152.5,27.3a22.71,22.71,0,0,0-32.7-.1,22.37,22.37,0,0,0-6.7,16.2,22.84,22.84,0,0,0,6.6,16.7,22.09,22.09,0,0,0,16.5,6.7c8.6,0,15.4-3.3,20.5-9.9l-6.8-5.1c-3.6,4.4-8,6.6-13.3,6.6a15.87,15.87,0,0,1-9.5-3.1c-2.9-2.1-4.8-5.4-5.6-9.9h37.7C159.3,38,157.1,32,152.5,27.3ZM122.6,38c2.7-6.1,7.3-9.1,13.7-9.1,5.8,0,10.3,3,13.3,9.1Z"/><path d="M86.4,20.3a19,19,0,0,0-13.8,5.3,18.39,18.39,0,0,0-5.4,13.6V65.6h9.2V40.7c0-3.6.9-6.4,2.6-8.4a8.93,8.93,0,0,1,7.1-3.1c6.7,0,10.1,3.8,10.1,11.5V65.6h9.3v-26c0-5.7-1.8-10.4-5.3-14S92.1,20.3,86.4,20.3Z"/><polygon points="199 23.7 189.7 23.7 189.7 40 173.4 40 173.4 49.3 189.7 49.3 189.7 65.7 199 65.7 199 49.3 215.3 49.3 215.3 40 199 40 199 23.7"/></svg>