<?xml version="1.0" standalone="no"?>
<!DOCTYPE svg PUBLIC "-//W3C//DTD SVG 20010904//EN"
 "http://www.w3.org/TR/2001/REC-SVG-20010904/DTD/svg10.dtd">
<svg version="1.0" xmlns="http://www.w3.org/2000/svg"
 width="2918.000000pt" height="2918.000000pt" viewBox="0 0 2918.000000 2918.000000"
 preserveAspectRatio="xMidYMid meet">
<metadata>
Created by potrace 1.11, written by Peter Selinger 2001-2013
</metadata>
<g transform="translate(0.000000,2918.000000) scale(0.100000,-0.100000)"
fill="#000000" stroke="none">
<path d="M14015 29159 c-3289 -133 -6411 -1356 -8895 -3484 -508 -435 -1048
-967 -1491 -1470 -2023 -2297 -3270 -5185 -3559 -8240 -48 -512 -54 -669 -55
-1370 0 -665 3 -771 41 -1225 187 -2293 926 -4526 2142 -6480 1851 -2973 4721
-5197 8040 -6230 1158 -360 2276 -562 3542 -640 477 -30 1326 -23 1855 16
1741 126 3406 548 4982 1263 2907 1319 5327 3586 6837 6405 1517 2832 2053
6090 1525 9281 -612 3701 -2647 7035 -5674 9295 -2532 1891 -5604 2903 -8765
2888 -179 0 -415 -5 -525 -9z m-7399 -9840 c304 -42 569 -270 664 -574 31 -98
38 -273 16 -382 -59 -291 -281 -537 -563 -623 -290 -88 -599 -3 -810 224 -156
167 -223 332 -223 550 1 235 73 410 239 576 186 185 422 265 677 229z m9037
-2284 c425 -50 781 -192 1077 -432 104 -84 272 -260 352 -368 182 -245 312
-557 367 -883 39 -230 42 -384 39 -1907 l-3 -1460 -520 0 -520 0 -6 1535 c-6
1680 -2 1571 -64 1795 -28 98 -96 248 -147 323 -47 69 -144 168 -213 217 -123
87 -269 143 -448 171 -143 23 -439 15 -552 -15 -114 -31 -286 -119 -373 -192
-181 -150 -315 -389 -372 -662 -37 -179 -40 -297 -40 -1755 l0 -1422 -512 2
-513 3 0 1590 c0 1482 1 1598 18 1705 59 375 177 669 378 940 79 107 270 303
374 385 322 251 709 402 1130 438 116 10 433 6 548 -8z m5567 0 c442 -52 838
-208 1182 -467 566 -427 913 -991 1033 -1683 28 -159 41 -288 51 -492 l6 -143
-2106 0 -2106 0 5 -22 c3 -13 14 -62 25 -109 81 -358 243 -660 466 -868 151
-141 423 -298 641 -370 187 -62 292 -76 558 -76 210 0 254 3 353 23 277 56
504 159 738 333 95 71 258 225 335 316 l44 52 378 -285 c207 -156 377 -288
377 -292 0 -18 -181 -220 -302 -338 -428 -415 -913 -646 -1553 -741 -170 -25
-661 -25 -822 -1 -339 52 -628 148 -892 298 -458 261 -863 707 -1071 1179
-235 536 -290 1199 -145 1769 120 475 373 888 776 1268 393 370 888 595 1437
653 132 14 458 12 592 -4z m-14190 -3740 l0 -3625 -520 0 -520 0 0 3625 0
3625 520 0 520 0 0 -3625z m2080 2238 c0 -764 5 -1456 10 -1540 21 -346 93
-576 241 -773 140 -186 364 -307 646 -349 106 -16 366 -14 460 4 229 43 415
149 559 317 147 170 232 366 280 648 15 84 17 261 21 1588 l4 1492 512 -2 512
-3 0 -1565 c0 -1675 1 -1645 -51 -1891 -129 -614 -540 -1135 -1109 -1405 -314
-148 -640 -211 -1055 -201 -317 7 -522 44 -789 143 -616 229 -1091 797 -1225
1466 -51 253 -49 190 -53 1857 -2 866 -1 1581 1 1588 4 10 104 13 521 13 l515
0 0 -1387z"/>
<path d="M20670 16080 c-283 -39 -535 -137 -731 -285 -108 -81 -266 -245 -351
-365 -37 -52 -97 -152 -133 -222 l-66 -128 1500 0 c826 0 1501 3 1501 8 0 15
-115 211 -181 307 -243 357 -566 581 -957 666 -77 17 -140 22 -307 24 -115 2
-239 0 -275 -5z"/>
</g>
</svg>
