<?xml version="1.0" standalone="no"?>
<!DOCTYPE svg PUBLIC "-//W3C//DTD SVG 20010904//EN"
 "http://www.w3.org/TR/2001/REC-SVG-20010904/DTD/svg10.dtd">
<svg version="1.0" xmlns="http://www.w3.org/2000/svg"
 width="700.000000pt" height="700.000000pt" viewBox="0 0 700.000000 700.000000"
 preserveAspectRatio="xMidYMid meet">
<metadata>
Created by potrace 1.11, written by Peter Selinger 2001-2013
</metadata>
<g transform="translate(0.000000,700.000000) scale(0.100000,-0.100000)"
fill="#000000" stroke="none">
<path d="M0 3500 l0 -3500 1148 1 c705 1 1114 5 1062 10 -340 35 -629 169
-860 399 -242 241 -374 530 -410 899 -6 62 -10 519 -10 1147 l0 1044 360 0
360 0 0 -1013 c0 -1038 2 -1105 40 -1262 62 -253 239 -439 478 -500 144 -37
362 -37 489 0 246 71 429 282 499 575 17 70 18 208 25 2250 4 1518 9 2193 17
2235 49 266 129 459 267 645 235 314 600 517 1005 559 50 5 -844 9 -2192 10
l-2278 1 0 -3500z m1464 1630 c118 -37 245 -139 315 -255 47 -77 71 -171 71
-275 0 -161 -50 -280 -165 -395 -113 -114 -234 -165 -388 -165 -188 0 -355 91
-465 252 -76 111 -109 275 -83 413 25 136 128 285 254 366 133 86 301 108 461
59z"/>
<path d="M4864 6989 c340 -36 631 -168 856 -389 217 -214 348 -475 407 -810
15 -87 17 -337 20 -2943 l4 -2847 424 0 425 0 0 3500 0 3500 -1107 -1 c-657
-1 -1076 -5 -1029 -10z"/>
<path d="M4465 6286 c-282 -66 -463 -261 -543 -584 l-26 -107 -3 -1860 c-3
-2278 -5 -2473 -27 -2582 -122 -622 -598 -1059 -1236 -1138 -90 -11 109 -13
1348 -14 l1452 -1 -3 2803 c-3 2566 -4 2809 -20 2882 -56 270 -172 442 -358
534 -46 22 -111 48 -144 57 -83 23 -358 29 -440 10z"/>
</g>
</svg>
