<?xml version="1.0" standalone="no"?>
<!DOCTYPE svg PUBLIC "-//W3C//DTD SVG 20010904//EN"
 "http://www.w3.org/TR/2001/REC-SVG-20010904/DTD/svg10.dtd">
<svg version="1.0" xmlns="http://www.w3.org/2000/svg"
 width="700.000000pt" height="700.000000pt" viewBox="0 0 700.000000 700.000000"
 preserveAspectRatio="xMidYMid meet">
<metadata>
Created by potrace 1.11, written by Peter Selinger 2001-2013
</metadata>
<g transform="translate(0.000000,700.000000) scale(0.100000,-0.100000)"
fill="#000000" stroke="none">
<path d="M3379 5645 c-110 -40 -204 -121 -251 -216 -47 -93 -55 -213 -21 -319
31 -96 123 -197 222 -244 81 -38 204 -48 289 -22 114 33 229 141 274 256 30
79 30 213 -1 293 -43 110 -139 203 -256 246 -65 24 -198 28 -256 6z"/>
<path d="M3200 2885 l0 -1585 300 0 300 0 0 1585 0 1585 -300 0 -300 0 0
-1585z"/>
</g>
</svg>
