<?xml version="1.0" standalone="no"?>
<!DOCTYPE svg PUBLIC "-//W3C//DTD SVG 20010904//EN"
 "http://www.w3.org/TR/2001/REC-SVG-20010904/DTD/svg10.dtd">
<svg version="1.0" xmlns="http://www.w3.org/2000/svg"
 width="335.000000pt" height="335.000000pt" viewBox="0 0 335.000000 335.000000"
 preserveAspectRatio="xMidYMid meet">
<metadata>
Created by potrace 1.11, written by Peter Selinger 2001-2013
</metadata>
<g transform="translate(0.000000,335.000000) scale(0.100000,-0.100000)"
fill="#000000" stroke="none">
<path d="M2 1673 l3 -1668 1667 -3 1668 -2 0 1670 0 1670 -1670 0 -1670 0 2
-1667z m832 511 c37 -37 35 -86 -3 -125 -20 -20 -39 -29 -61 -29 -64 0 -109
76 -78 133 29 54 98 64 142 21z m1048 -257 c24 -14 52 -38 64 -54 44 -62 49
-89 49 -288 l0 -190 -56 -3 -57 -3 -4 183 c-5 241 -18 268 -128 268 -40 0 -56
-5 -75 -24 -36 -36 -45 -87 -45 -264 l0 -163 -57 3 -58 3 0 190 c0 131 4 201
13 227 17 49 83 113 135 132 63 23 164 15 219 -17z m614 5 c96 -49 152 -130
161 -233 l6 -59 -233 0 -232 0 7 -27 c31 -126 223 -168 314 -70 l24 26 43 -31
c24 -17 44 -34 44 -38 0 -13 -67 -69 -110 -91 -63 -31 -183 -38 -247 -14 -109
42 -183 149 -183 266 0 139 68 237 199 286 50 19 156 11 207 -15z m-1666 -392
l0 -411 -57 3 -58 3 -3 395 c-1 217 0 401 3 407 3 8 25 13 60 13 l55 0 0 -410z
m230 242 c0 -178 7 -222 41 -258 44 -47 150 -36 181 18 9 16 15 81 18 213 l5
190 58 3 57 3 0 -194 c0 -118 -4 -207 -11 -228 -31 -92 -118 -149 -228 -149
-80 0 -134 23 -178 73 -51 59 -63 116 -63 312 0 94 3 175 7 178 3 4 30 7 60 7
l53 0 0 -168z"/>
<path d="M2291 1828 c-23 -13 -51 -38 -63 -55 l-20 -33 161 0 c92 0 161 4 161
9 0 18 -50 69 -84 85 -47 22 -105 20 -155 -6z"/>
</g>
</svg>
